<svg xmlns="http://www.w3.org/2000/svg" width="20.769" height="18" viewBox="0 0 20.769 18">
  <path id="Path_27" data-name="Path 27" d="M1110.78,769a5.193,5.193,0,1,0-5.192-5.192A5.193,5.193,0,0,0,1110.78,769Zm-3.25-5.869a.3.3,0,0,1,.339-.339h1.693c.158,0,.2-.045.2-.2V760.9a.3.3,0,0,1,.338-.338h1.354a.3.3,0,0,1,.339.338v1.693c0,.158.045.2.2.2h1.693a.3.3,0,0,1,.338.339v1.354a.3.3,0,0,1-.338.338H1112c-.158,0-.2.045-.2.2v1.692a.3.3,0,0,1-.339.339H1110.1a.3.3,0,0,1-.338-.339v-1.692c0-.159-.045-.2-.2-.2h-1.693a.3.3,0,0,1-.339-.338Zm12.871,13.484H1101.16a.785.785,0,0,1-.729-1.019,6.237,6.237,0,0,1,5.867-4.519h8.964a6.236,6.236,0,0,1,5.867,4.519A.784.784,0,0,1,1120.4,776.615Z" transform="translate(-1100.396 -758.615)" fill="#191919"/>
</svg>
