<svg xmlns="http://www.w3.org/2000/svg" width="20.769" height="18" viewBox="0 0 20.769 18">
  <g id="Group_1211" data-name="Group 1211" transform="translate(-7.616 -7)">
    <g id="Group_1211-2" data-name="Group 1211" transform="translate(-1092.779 -372.615)">
      <circle id="Ellipse_5" data-name="Ellipse 5" cx="5.192" cy="5.192" r="5.192" transform="translate(1105.588 379.615)" fill="#e7efff"/>
      <path id="Path_37" data-name="Path 37" d="M1120.4,397.615a.784.784,0,0,0,.728-1.019,6.236,6.236,0,0,0-5.867-4.519H1106.3a6.237,6.237,0,0,0-5.867,4.519.785.785,0,0,0,.729,1.019Z" fill="#e7efff"/>
    </g>
    <g id="Group_1212" data-name="Group 1212" transform="translate(-1092.779 -372.615)">
      <path id="Path_38" data-name="Path 38" d="M1109.427,387.868l-2.294-2.294a.5.5,0,0,1,0-.707l.707-.707a.5.5,0,0,1,.707,0l.88.88a.5.5,0,0,0,.707,0l2.6-2.6a.5.5,0,0,1,.707,0l.707.707a.5.5,0,0,1,0,.708l-4.013,4.013A.5.5,0,0,1,1109.427,387.868Z" fill="#0b5dfe"/>
    </g>
  </g>
</svg>
