<svg id="gif_box_black_24dp" xmlns="http://www.w3.org/2000/svg" width="24" height="24" viewBox="0 0 24 24">
  <rect id="Rectangle_244" data-name="Rectangle 244" width="24" height="24" fill="none"/>
  <path id="Path_1098" data-name="Path 1098" d="M19,19H5V5H19ZM5,3A2.006,2.006,0,0,0,3,5V19a2.006,2.006,0,0,0,2,2H19a2.006,2.006,0,0,0,2-2V5a2.006,2.006,0,0,0-2-2Zm6.5,11h1V10h-1Zm2,0h1V12.5H16v-1H14.5V11h2V10h-3Zm-4-2v1h-1V11h2a1,1,0,0,0-1-1h-1a1,1,0,0,0-1,1v2a1,1,0,0,0,1,1h1a1,1,0,0,0,1-1V12Z" fill="#969696"/>
</svg>
