
<svg width="12px" height="12px" viewBox="0 0 12 12" version="1.1" xmlns="http://www.w3.org/2000/svg" xmlns:xlink="http://www.w3.org/1999/xlink">
    <title>AD4E4AD9-0C93-420C-AD88-65EC3F7977EE</title>
    <g id="Page-1" stroke="none" stroke-width="1" fill="none" fill-rule="evenodd">
        <g id="Profile---Photos" transform="translate(-344.000000, -506.000000)" fill="#FFFFFF">
            <g id="Grid" transform="translate(0.000000, 389.000000)">
                <g id="title-4-copy-3" transform="translate(251.000000, 10.000000)">
                    <g id="icon/gallery" transform="translate(93.000000, 107.000000)">
                        <path d="M12,4.67027031 L12,9.59999996 C12,10.9254834 10.9254834,12 9.59999996,12 L4.67027031,12 C3.58079657,12 2.66087417,11.2740645 2.36782002,10.2795103 C2.58458591,10.3443121 2.812639,10.3783784 3.04864868,10.3783784 L3.04864868,10.3783784 L7.97837834,10.3783784 C9.30386176,10.3783784 10.3783784,9.30386176 10.3783784,7.97837834 L10.3783784,7.97837834 L10.3783784,3.04864868 C10.3783784,2.812639 10.3443121,2.58458591 10.2808286,2.36913838 C11.2740645,2.66087417 12,3.58079657 12,4.67027031 Z M7.32972969,0 C8.65521311,-2.43487354e-16 9.72972973,1.07451662 9.72972973,2.40000004 L9.72972973,7.32972969 C9.72972973,8.65521311 8.65521311,9.72972973 7.32972969,9.72972973 L2.40000004,9.72972973 C1.07451662,9.72972973 1.62324903e-16,8.65521311 0,7.32972969 L0,2.40000004 C-1.62324903e-16,1.07451662 1.07451662,2.43487354e-16 2.40000004,0 L7.32972969,0 Z" id="icon__gallery"></path>
                    </g>
                </g>
            </g>
        </g>
    </g>
</svg>