<svg id="Emote_btn" xmlns="http://www.w3.org/2000/svg" width="23" height="24" viewBox="0 0 23 24">
  <g id="Emoji" transform="translate(-1245.398 -601.597)">
    <g id="Group_1312" data-name="Group 1312">
      <path id="Path_1135" data-name="Path 1135" d="M1260.609,603.715a.477.477,0,0,1,.351-.118A.477.477,0,0,0,1260.609,603.715Z" fill="#969696"/>
      <path id="Path_1136" data-name="Path 1136" d="M1257.867,606.691a.481.481,0,0,0-.352.117.481.481,0,0,1,.352-.117Z" fill="#969696"/>
      <path id="Path_1137" data-name="Path 1137" d="M1257.867,609.5h0a.481.481,0,0,1-.352-.117A.481.481,0,0,0,1257.867,609.5Z" fill="#969696"/>
      <path id="Path_1139" data-name="Path 1139" d="M1260.96,612.6a.477.477,0,0,1-.351-.117A.477.477,0,0,0,1260.96,612.6Z" fill="#969696"/>
      <path id="Path_1140" data-name="Path 1140" d="M1266.134,609.475h0Z" fill="#969696"/>
      <path id="Path_1141" data-name="Path 1141" d="M1265.929,606.691h0a.659.659,0,0,1,.205.029A.659.659,0,0,0,1265.929,606.691Z" fill="#969696"/>
      <circle id="Ellipse_159" data-name="Ellipse 159" cx="1.5" cy="1.5" r="1.5" transform="translate(1250.898 611.097)" fill="#969696"/>
      <path id="Path_1142" data-name="Path 1142" d="M1259.408,617.256a3.981,3.981,0,0,1-3.01,1.38,4.033,4.033,0,0,1-3.009-1.379,1,1,0,1,0-1.5,1.324,5.971,5.971,0,0,0,9.015,0,1,1,0,0,0-1.5-1.325Z" fill="#969696"/>
      <path id="Path_1143" data-name="Path 1143" d="M1265.929,604.691h-.625v-.625a2.415,2.415,0,0,0-2.469-2.469h-1.875a2.4,2.4,0,0,0-2.444,2.21,10.99,10.99,0,1,0,8.383,7.512,2.407,2.407,0,0,0,1.5-2.284V607.16A2.415,2.415,0,0,0,1265.929,604.691ZM1256.4,623.6a8.994,8.994,0,0,1-.476-17.975,2.471,2.471,0,0,0-.524,1.538v1.875a2.414,2.414,0,0,0,2.469,2.469h.625v.625a2.414,2.414,0,0,0,2.468,2.468h1.875a2.4,2.4,0,0,0,2.379-1.815A9,9,0,0,1,1256.4,623.6Zm9.531-14.093h-2.343c-.219,0-.282.062-.282.281v2.344a.414.414,0,0,1-.469.468h-1.875a.414.414,0,0,1-.468-.468v-2.344c0-.219-.062-.281-.281-.281h-2.344a.414.414,0,0,1-.469-.469V607.16a.414.414,0,0,1,.469-.469h2.344c.219,0,.281-.062.281-.281v-2.344a.415.415,0,0,1,.468-.469h1.875a.415.415,0,0,1,.469.469v2.344c0,.219.063.281.282.281h2.343a.659.659,0,0,1,.205.029.407.407,0,0,1,.264.44v1.875a.406.406,0,0,1-.264.44h-.009A.643.643,0,0,1,1265.929,609.5Z" fill="#969696"/>
    </g>
  </g>
</svg>
