<svg xmlns="http://www.w3.org/2000/svg" width="16.178" height="24" viewBox="0 0 16.178 24">
  <g id="Group_11" data-name="Group 11" transform="translate(-1156.691 -757)">
    <g id="Group_10" data-name="Group 10">
      <path id="Path_28" data-name="Path 28" d="M1161.406,777.229a4.746,4.746,0,0,1-1.244-3.718c.376-2.6,2.876-5.263,6.857-7.3.459-.235.853-.453,1.217-.663a10.613,10.613,0,0,0-3.358.176s.546-.957,3.486-2.069c5.173-1.957,4.094-5.713,4.094-5.713s-.653,1.3-3.711,2.092-7.319,1.231-10.149,4.844h0a7.976,7.976,0,0,0-1.907,5.187,8.148,8.148,0,0,0,5.106,7.569C1161.662,777.505,1161.529,777.372,1161.406,777.229Z" fill="#e7efff"/>
      <path id="Path_29" data-name="Path 29" d="M1167.637,767.42c-3.327,1.7-5.8,3.991-6.129,6.284s2.7,5.245,6.21,3.991a6.77,6.77,0,0,0,4.747-7.394,5.237,5.237,0,0,1-2.755,3.536c-2.249.97-3.781-.846-2.271-2.823,1.212-1.587,4.542-3.241,5.181-4.983a2.594,2.594,0,0,0-.154-2.623S1172.652,764.855,1167.637,767.42Z" fill="#e7efff"/>
    </g>
    <line id="Line_18" data-name="Line 18" y1="5.704" transform="translate(1164.78 757)" fill="none" stroke="#e7efff" stroke-miterlimit="10" stroke-width="2"/>
    <path id="Path_1123" data-name="Path 1123" d="M0,0V5.7" transform="translate(1164.78 775.296)" fill="none" stroke="#e7efff" stroke-width="2"/>
  </g>
</svg>
