<svg id="Wallet_icon" xmlns="http://www.w3.org/2000/svg" width="53" height="54.428" viewBox="0 0 53 54.428">
  <path id="Path_20" data-name="Path 20" d="M1436.5,113.88v-.007c0-.035,0-.066,0-.129a5.389,5.389,0,0,0-.465-2.21,4.9,4.9,0,0,0-.986-1.515,4.989,4.989,0,0,0-3.728-1.448h-.005v.013c-.042,0-.082-.013-.125-.013h-7.205c0-.1.014-.189.014-.285a14,14,0,1,0-28,0c0,.1.012.189.014.285h-7.691v7.618H1383.5v32.525h43.763c5.093,0,9.237-3.407,9.237-7.6V113.88Zm-3,11.491v14.161h-1v1h1v.586c0,2.534-2.8,4.6-6.237,4.6H1386.5V119.189h44.566a5.408,5.408,0,0,0,2.434-.576v5.758h-1v1Zm-42.177-13.8h5.083a13.928,13.928,0,0,0,2.049,4.618h-7.132Zm7.677-3.285a10.978,10.978,0,0,1,16.562-9.474,10.387,10.387,0,0,1-1.616.554c-3.043.784-7.281,1.226-10.1,4.819h0a7.931,7.931,0,0,0-1.9,5.16,8.075,8.075,0,0,0,3.733,6.844h-3.319A10.961,10.961,0,0,1,1399,108.286Zm18.633,7.9h-3.143a6.629,6.629,0,0,0,3.155-6.609,5.21,5.21,0,0,1-2.741,3.517,3.019,3.019,0,0,1-1.19.268c-1.52,0-2.284-1.486-1.069-3.076s4.518-3.224,5.154-4.956a2.583,2.583,0,0,0-.154-2.611s.186,1.441-4.8,3.992c-3.31,1.693-5.769,3.97-6.1,6.251a3.7,3.7,0,0,0,1.578,3.224h-1.611a4.538,4.538,0,0,1-.9-1.362c-.683-1.665-.138-3.965,2.181-6a18.819,18.819,0,0,1,6.489-3.87,18.027,18.027,0,0,0-2.318-.161,7.867,7.867,0,0,0-2.068.228s.543-.952,3.468-2.058a6.379,6.379,0,0,0,3.693-2.927,10.955,10.955,0,0,1,.375,16.147Zm-4.336-8.584a23.412,23.412,0,0,0,2.944-1.749,18.974,18.974,0,0,1-1.926,1.615,13.423,13.423,0,0,0-2.465,2.211,3.131,3.131,0,0,0-.548,3.285,2.6,2.6,0,0,0,2.412,1.4,4.009,4.009,0,0,0,1.586-.35q.144-.062.282-.132a6.284,6.284,0,0,1-3,2.111,4.045,4.045,0,0,1-.85.195h-.876a3.794,3.794,0,0,1-2.44-1.257,2.429,2.429,0,0,1-.685-1.824C1407.993,111.311,1410.073,109.254,1413.3,107.605Zm20.2,6.233a2.436,2.436,0,0,1-2.43,2.351h-9.521a13.928,13.928,0,0,0,2.049-4.618h7.6A2.31,2.31,0,0,1,1433.5,113.838Zm-28.936.05a7.19,7.19,0,0,1-1.607-4.543,7,7,0,0,1,1.685-4.543c2.174-2.776,5.317-3.49,8.09-4.12.51-.116,1-.228,1.467-.347a11.087,11.087,0,0,0,2.22-.807,5.433,5.433,0,0,1-3.2,2.5c-3.027,1.145-3.814,2.2-3.983,2.5a1,1,0,0,0,.826,1.494,23.232,23.232,0,0,0-2.72,2.052A7.068,7.068,0,0,0,1404.56,113.888Zm1.54,25.644h5.5v1h-5.5Zm-8.8,0h5.5v1h-5.5Zm17.6,0h5.5v1h-5.5Zm8.8,0h5.5v1h-5.5Zm-31.7,0h2v1h-3v-3h1Zm0-4.771h-1v-4.618h1Zm-1-10.39h3v1h-2v2h-1Zm6.3,0h5.5v1h-5.5Zm8.8,0h5.5v1h-5.5Zm17.6,0h5.5v1h-5.5Zm-8.8,0h5.5v1h-5.5Z" transform="translate(-1383.5 -94.286)" fill="#191919"/>
</svg>
